<?xml version="1.0" standalone="no"?><!DOCTYPE svg PUBLIC "-//W3C//DTD SVG 1.1//EN" "http://www.w3.org/Graphics/SVG/1.1/DTD/svg11.dtd"><svg t="1778674343312" class="icon" viewBox="0 0 1024 1024" version="1.1" xmlns="http://www.w3.org/2000/svg" p-id="2790" xmlns:xlink="http://www.w3.org/1999/xlink" width="200" height="200"><path d="M768 1024H256C115.2 1024 0 908.8 0 768V256C0 115.2 115.2 0 256 0h512c140.8 0 256 115.2 256 256v512c0 140.8-115.2 256-256 256z" fill="#25C251" p-id="2791"></path><path d="M497.067 800c166.4 0 300.8-132.267 300.8-296.533S663.467 204.8 497.067 204.8c-164.267 0-296.534 130.133-300.8 290.133v14.934c4.266 160 138.666 290.133 300.8 290.133z m185.6-249.6v12.8L620.8 622.933c-10.667 10.667-27.733 10.667-36.267 0-10.666-10.666-10.666-25.6 0-36.266L601.6 569.6h-256c-14.933 0-25.6-10.667-25.6-25.6s12.8-25.6 25.6-25.6h324.267l12.8 32z m-371.2-104.533v-2.134L373.333 384c10.667-10.667 27.734-10.667 36.267 0 10.667 10.667 10.667 25.6 0 36.267l-17.067 17.066h256c14.934 0 25.6 10.667 25.6 25.6s-12.8 25.6-25.6 25.6H332.8V486.4l-2.133-2.133-19.2-38.4c0 2.133 0 0 0 0z" fill="#FFFFFF" p-id="2792"></path></svg>